<svg width="48" height="48" viewBox="0 0 48 48" fill="none" xmlns="http://www.w3.org/2000/svg">
<g clip-path="url(#clip0_210_2025)">
<mask id="mask0_210_2025" style="mask-type:luminance" maskUnits="userSpaceOnUse" x="0" y="0" width="46" height="47">
<path d="M46 0.888916H0V46.8889H46V0.888916Z" fill="white"/>
</mask>
<g mask="url(#mask0_210_2025)">
<path d="M38.4696 12.9423H34.7391V8.96154C35.6772 8.92261 36.5639 8.51503 37.2127 7.82456C37.8614 7.13409 38.2215 6.21455 38.2174 5.25942V4.70212C38.2174 3.72025 37.834 2.77861 37.1515 2.08432C36.469 1.39004 35.5434 1 34.5783 1H30.3913V2.76923H34.5783C35.0822 2.76923 35.5654 2.97287 35.9218 3.33536C36.2781 3.69785 36.4783 4.18948 36.4783 4.70212V5.255C36.482 5.75481 36.2944 6.2365 35.9552 6.59809C35.616 6.95968 35.1518 7.17279 34.6609 7.19231C33.3381 7.23104 32.0402 7.56792 30.8609 8.17865C29.2564 9.08244 27.9337 10.4265 27.0435 12.0577C25.6087 14.4196 25.2261 16.6267 24.9304 18.4004C24.613 20.3112 24.4043 21.3462 23.4348 21.9079C23.1739 22.0627 22.487 22.4696 22 22.2838C20.7826 21.8415 20.6696 17.905 20.587 15.0388C20.4783 11.2173 20.3826 7.91769 18.413 7.29404C18.2316 7.23582 18.0425 7.20599 17.8522 7.20558C17.1865 7.26632 16.5552 7.53341 16.0435 7.97077C15.3701 8.54528 14.5262 8.87246 13.6478 8.89962C13.091 8.84576 12.5626 8.62398 12.1304 8.26269C11.2689 7.60536 10.2204 7.25135 9.14348 7.25423C8.49618 7.31712 7.85673 7.44604 7.23478 7.63904L7.08261 7.67885C6.80565 7.7499 6.51641 7.75575 6.2369 7.69597C5.95738 7.63619 5.69495 7.51234 5.46957 7.33385C5.24309 7.1585 5.05938 6.93241 4.93271 6.67314C4.80603 6.41386 4.73979 6.12838 4.73913 5.83885V4.70212C4.73913 4.18948 4.93931 3.69785 5.29563 3.33536C5.65195 2.97287 6.13522 2.76923 6.63913 2.76923H25.1739V1H6.63913C5.67397 1 4.74835 1.39004 4.06588 2.08432C3.38341 2.77861 3 3.72025 3 4.70212V5.83885C3.00272 6.78808 3.36632 7.69943 4.01466 8.38208C4.66301 9.06473 5.54583 9.46575 6.47826 9.50115V43.4615C6.47826 44.4 6.84472 45.3 7.49702 45.9636C8.14932 46.6272 9.03403 47 9.95652 47H13.8696V45.2308H9.95652C9.49528 45.2308 9.05292 45.0444 8.72677 44.7126C8.40062 44.3808 8.21739 43.9308 8.21739 43.4615V41.25H33V43.4615C33 43.9308 32.8168 44.3808 32.4906 44.7126C32.1645 45.0444 31.7221 45.2308 31.2609 45.2308H19.087V47H31.2609C32.1834 47 33.0681 46.6272 33.7204 45.9636C34.3727 45.3 34.7391 44.4 34.7391 43.4615V32.8462H38.4696C39.6708 32.845 40.8224 32.359 41.6718 31.495C42.5212 30.6309 42.9988 29.4593 43 28.2373V17.5512C42.9988 16.3292 42.5212 15.1576 41.6718 14.2935C40.8224 13.4294 39.6708 12.9435 38.4696 12.9423ZM33 39.4808H8.21739V9.20923C8.53395 9.11571 8.85864 9.0535 9.18696 9.02346C9.91197 9.03505 10.6126 9.29182 11.1783 9.75327C11.8901 10.3112 12.7543 10.6311 13.6522 10.6688C14.8829 10.6458 16.0718 10.2105 17.0348 9.43038C17.4 9.17827 17.7435 8.93942 17.9043 8.98808C18.6913 9.23577 18.8 12.9025 18.8609 15.0963C18.9783 19.201 19.0913 23.0579 21.413 23.9425C21.6917 24.0458 21.9861 24.0982 22.2826 24.0973C23.0014 24.0604 23.6983 23.8332 24.3043 23.4383C26.0435 22.421 26.3261 20.6119 26.6478 18.6967C26.9304 16.9894 27.2522 15.0565 28.5217 12.9467C29.2517 11.5972 30.3393 10.4831 31.6609 9.73115C32.0887 9.51375 32.5375 9.34182 33 9.21808V39.4808ZM34.7391 17.8077H38.2174V27.9808H34.7391V17.8077ZM41.2609 28.2373C41.2597 28.9901 40.9653 29.7116 40.442 30.2439C39.9188 30.7762 39.2095 31.0758 38.4696 31.0769H34.7391V29.75H38.4696C38.8639 29.75 39.2421 29.5906 39.521 29.3069C39.7999 29.0233 39.9565 28.6385 39.9565 28.2373V17.5512C39.9565 17.15 39.7999 16.7652 39.521 16.4815C39.2421 16.1978 38.8639 16.0385 38.4696 16.0385H34.7391V14.7115H38.4696C39.2095 14.7127 39.9188 15.0123 40.442 15.5445C40.9653 16.0768 41.2597 16.7984 41.2609 17.5512V28.2373Z" fill="#101820"/>
<path d="M12.9994 37.2692C12.7688 37.2692 12.5476 37.176 12.3846 37.0101C12.2215 36.8442 12.1299 36.6192 12.1299 36.3846V19.1346C12.1299 18.9 12.2215 18.675 12.3846 18.5091C12.5476 18.3432 12.7688 18.25 12.9994 18.25C13.2301 18.25 13.4512 18.3432 13.6143 18.5091C13.7774 18.675 13.869 18.9 13.869 19.1346V36.3846C13.869 36.6192 13.7774 36.8442 13.6143 37.0101C13.4512 37.176 13.2301 37.2692 12.9994 37.2692Z" fill="#101820"/>
<path d="M20.391 37.2693C20.1604 37.2693 19.9392 37.1761 19.7762 37.0102C19.6131 36.8443 19.5215 36.6193 19.5215 36.3846V27.7641C19.5215 27.5295 19.6131 27.3045 19.7762 27.1386C19.9392 26.9727 20.1604 26.8795 20.391 26.8795C20.6217 26.8795 20.8429 26.9727 21.0059 27.1386C21.169 27.3045 21.2606 27.5295 21.2606 27.7641V36.3846C21.2606 36.6193 21.169 36.8443 21.0059 37.0102C20.8429 37.1761 20.6217 37.2693 20.391 37.2693Z" fill="#101820"/>
<path d="M27.3481 37.2693C27.1175 37.2693 26.8963 37.1761 26.7332 37.0102C26.5701 36.8443 26.4785 36.6193 26.4785 36.3846V27.7641C26.4785 27.5295 26.5701 27.3045 26.7332 27.1386C26.8963 26.9727 27.1175 26.8795 27.3481 26.8795C27.5787 26.8795 27.7999 26.9727 27.963 27.1386C28.126 27.3045 28.2176 27.5295 28.2176 27.7641V36.3846C28.2176 36.6193 28.126 36.8443 27.963 37.0102C27.7999 37.1761 27.5787 37.2693 27.3481 37.2693Z" fill="#101820"/>
<path d="M17.3475 46.1154C17.3475 45.6268 16.9582 45.2308 16.478 45.2308C15.9977 45.2308 15.6084 45.6268 15.6084 46.1154C15.6084 46.6039 15.9977 47 16.478 47C16.9582 47 17.3475 46.6039 17.3475 46.1154Z" fill="#101820"/>
<path d="M28.6522 1.88462C28.6522 1.39606 28.2629 1 27.7827 1C27.3024 1 26.9131 1.39606 26.9131 1.88462C26.9131 2.37318 27.3024 2.76923 27.7827 2.76923C28.2629 2.76923 28.6522 2.37318 28.6522 1.88462Z" fill="#101820"/>
</g>
</g>
<defs>
<clipPath id="clip0_210_2025">
<rect width="48" height="48" fill="white"/>
</clipPath>
</defs>
</svg>
