<svg width="48" height="48" viewBox="0 0 48 48" fill="none" xmlns="http://www.w3.org/2000/svg">
<path d="M6.37633 46H41.6233L39.055 23.5319H47.9996L44.2801 2H29.1363L29.0477 2.84255C28.8706 5.37021 26.8337 7.33617 24.4426 7.33617C22.0515 7.33617 20.0146 5.37021 19.8375 2.84255L19.7489 2H3.71953L0 23.1574H8.94458L6.37633 46ZM2.12544 21.2851L5.22505 3.87234H18.1548C18.7748 6.9617 21.343 9.30213 24.4426 9.30213C27.4536 9.30213 30.1105 6.9617 30.7304 3.87234H42.8631L45.9627 21.6596H38.9665L38.1694 14.3574L36.3982 14.5447L39.5864 44.1277H8.41321L11.6899 14.6383L9.91874 14.4511L9.1217 21.3787H2.12544V21.2851Z" fill="#101820"/>
</svg>
