<svg width="48" height="48" viewBox="0 0 48 48" fill="none" xmlns="http://www.w3.org/2000/svg">
<g clip-path="url(#clip0_210_2046)">
<path d="M1.50002 14.9838C1.49812 14.645 1.60574 14.3168 1.80374 14.0467L1.94148 13.9089L13.9013 1.94136C13.9014 1.94133 13.9014 1.94129 13.9015 1.94125C14.186 1.65678 14.5676 1.50003 15.0045 1.50003L33.0211 1.50004L33.0239 1.50002C33.4354 1.4977 33.8314 1.65705 34.1265 1.9437C34.1273 1.94441 34.128 1.94512 34.1287 1.94583L46.0585 13.8834L46.0586 13.8835C46.3432 14.168 46.5 14.5497 46.5 14.9866L46.5 33.0135L46.5 33.0163C46.5023 33.4278 46.3429 33.8238 46.0562 34.119C46.0555 34.1197 46.0548 34.1204 46.0542 34.1211L34.1242 46.0587C34.1242 46.0587 34.1241 46.0588 34.1241 46.0588C33.8396 46.3433 33.4579 46.5 33.0211 46.5H14.9789C14.5643 46.5 14.1581 46.341 13.8758 46.0587L1.94148 34.1167L1.94136 34.1166C1.65682 33.832 1.50003 33.4503 1.50003 33.0135L1.50004 14.9866L1.50002 14.9838ZM32.9505 14.1731L32.9504 14.173C32.3774 13.6001 31.6003 13.2783 30.7901 13.2783C29.9799 13.2783 29.2029 13.6001 28.6299 14.1729C28.6298 14.173 28.6298 14.173 28.6298 14.173L23.5605 19.2399L18.4937 14.173L18.4935 14.1729C17.9202 13.6 17.1428 13.2783 16.3323 13.2786C15.5217 13.2788 14.7445 13.6011 14.1716 14.1744C13.5987 14.7478 13.277 15.5252 13.2773 16.3357C13.2776 17.1462 13.5998 17.9234 14.1731 18.4964L19.2398 23.5606L14.1729 28.6299L14.1729 28.6299C13.6 29.2032 13.2783 29.9807 13.2786 30.7912C13.2788 31.6017 13.6011 32.3789 14.1744 32.9519C14.7477 33.5248 15.5252 33.8465 16.3357 33.8462C17.1462 33.8459 17.9234 33.5237 18.4963 32.9504C18.4963 32.9504 18.4963 32.9503 18.4964 32.9503L23.5606 27.8837L28.6299 32.9505L28.6298 32.9506L28.636 32.9565C29.2123 33.5131 29.9841 33.8211 30.7852 33.8142C31.5864 33.8072 32.3528 33.4859 32.9193 32.9193C33.4858 32.3528 33.8072 31.5864 33.8141 30.7853C33.8211 29.9841 33.5131 29.2123 32.9565 28.636L32.9566 28.6359L32.9505 28.6299L27.8836 23.5605L32.9504 18.4937L32.9505 18.4936C33.5233 17.9206 33.8451 17.1436 33.8451 16.3334C33.8451 15.5231 33.5233 14.7461 32.9505 14.1731Z" stroke="#101820"/>
</g>
<defs>
<clipPath id="clip0_210_2046">
<rect width="48" height="48" fill="white"/>
</clipPath>
</defs>
</svg>
