<svg width="48" height="48" viewBox="0 0 48 48" fill="none" xmlns="http://www.w3.org/2000/svg">
<path d="M10.2068 17.9592L10.2173 17.9895L10.2317 18.0182C10.9248 19.4046 11.0623 21.0066 10.6156 22.4926C10.1734 23.9638 9.19217 25.2088 7.8733 25.9762C6.69386 26.377 5.36171 26.1049 4.13546 25.2554C2.89504 24.3962 1.79821 22.9645 1.16887 21.1543L1.1582 21.1237L1.14366 21.0946C0.449361 19.7083 0.310802 18.1058 0.756947 16.6191C1.19868 15.1472 2.17975 13.9014 3.49886 13.1334C4.67806 12.7328 6.01014 13.0055 7.23695 13.8559C8.47795 14.7161 9.57573 16.1488 10.2068 17.9592ZM32.8728 44.3H32.8721C31.7355 44.3016 30.6096 44.0769 29.5593 43.6388C28.5089 43.2008 27.5546 42.5579 26.7512 41.7469L26.7507 41.7463C26.0216 41.0126 25.0323 40.5997 24 40.5997C22.9681 40.5997 21.9791 41.0123 21.2501 41.7455C19.6223 43.3657 17.4249 44.2708 15.1379 44.2642C12.8503 44.2575 10.6576 43.3394 9.03901 41.7091C7.42025 40.0787 6.5073 37.8685 6.50071 35.5613C6.49413 33.2545 7.39409 31.0395 9.00291 29.3998C10.9721 27.4151 13.31 25.8409 15.883 24.7669C18.4564 23.6927 21.2146 23.1398 24 23.1398C26.7854 23.1398 29.5436 23.6927 32.117 24.7669C34.6904 25.8411 37.0287 27.4156 38.998 29.4007L38.998 29.4007C40.2092 30.6213 41.0343 32.1767 41.3684 33.8703C41.7025 35.5639 41.5306 37.3192 40.8744 38.9142C40.2182 40.5092 39.1075 41.8718 37.6832 42.8302C36.259 43.7886 34.5849 44.3 32.8728 44.3ZM11.5375 12.5752L11.5375 12.5748C11.3302 10.3787 11.7922 8.34802 12.6817 6.84304C13.5716 5.33739 14.8646 4.3903 16.3282 4.25149L16.3287 4.25144C17.792 4.11114 19.2369 4.79681 20.3906 6.10743C21.5438 7.41763 22.376 9.32563 22.5833 11.5238C22.7906 13.7218 22.3285 15.7533 21.439 17.2587C20.5491 18.7648 19.2562 19.7118 17.7926 19.8507C16.329 19.9895 14.883 19.3028 13.7289 17.9917C12.5752 16.6811 11.7432 14.7732 11.5375 12.5752ZM25.4167 11.5238L25.4168 11.5235C25.6224 9.32552 26.4545 7.41766 27.6081 6.1075C28.7622 4.79687 30.2079 4.11113 31.6713 4.25144L31.6718 4.25149C33.1354 4.3903 34.4284 5.33739 35.3183 6.84304C36.2078 8.34802 36.6698 10.3787 36.4625 12.5748L36.4625 12.5749C36.2552 14.7731 35.4231 16.6811 34.2698 17.9918C33.116 19.3029 31.671 19.9895 30.2075 19.8507C28.7438 19.7118 27.4509 18.7648 26.561 17.2587C25.6715 15.7533 25.2094 13.7218 25.4167 11.5238ZM37.7681 18.0152L37.7826 17.9863L37.7932 17.9558C38.4243 16.1455 39.522 14.7136 40.7629 13.8543C41.9896 13.0048 43.3217 12.7327 44.5011 13.1334C45.8202 13.9014 46.8013 15.1472 47.243 16.6191C47.6892 18.1058 47.5506 19.7083 46.8563 21.0946L46.8418 21.1237L46.8311 21.1543C46.2018 22.9645 45.105 24.3962 43.8644 25.2559C42.6381 26.1058 41.3058 26.3788 40.1263 25.9795C38.8059 25.212 37.8237 23.9659 37.3813 22.4932C36.9345 21.0058 37.0731 19.4022 37.7681 18.0152Z" stroke="#101820"/>
</svg>
