<svg width="48" height="48" viewBox="0 0 48 48" fill="none" xmlns="http://www.w3.org/2000/svg">
<g clip-path="url(#clip0_210_2032)">
<g clip-path="url(#clip1_210_2032)">
<path d="M41.8802 30.5286H40.7786V23.4609H41.8817L41.8802 30.5286ZM48 24C48 11.3171 37.4587 1 24.5 1C11.5413 1 1 11.3171 1 24C1 36.6829 11.5413 47 24.5 47C37.4587 47 48 36.6829 48 24ZM23.1705 23.4609H7.67057C7.36611 23.4609 7.11979 23.702 7.11979 24V29.9896C7.11979 30.2876 7.36611 30.5286 7.67057 30.5286H30.3918L39.9372 39.8694C35.9165 43.6189 30.4775 45.9219 24.5 45.9219C12.1487 45.9219 2.10156 36.087 2.10156 24C2.10156 18.1497 4.45615 12.8279 8.28561 8.89277L23.1705 23.4609ZM38.2695 30.5286C38.574 30.5286 38.8203 30.2876 38.8203 29.9896V24C38.8203 23.702 38.574 23.4609 38.2695 23.4609H24.728L9.06435 8.1291C13.0851 4.38112 18.5225 2.07812 24.5 2.07812C36.8497 2.07812 46.8984 11.9115 46.8984 24C46.8984 29.8503 44.5454 35.1736 40.7159 39.1087L31.9508 30.5301L38.2695 30.5286ZM25.8295 24.5391H37.7188V29.4505H30.8493L25.8295 24.5391ZM8.22135 24.5391H24.272L29.2903 29.4505H8.22135V24.5391ZM41.8802 19.5078C41.8802 15.9081 38.8876 12.9792 35.2096 12.9792H27.5599C26.1768 12.9792 25.0508 11.8771 25.0508 10.5234V9.02604H23.9492V10.5234C23.9492 12.4715 25.5694 14.0573 27.5599 14.0573H35.2096C38.2802 14.0573 40.7786 16.5025 40.7786 19.5078V21.0052H41.8817L41.8802 19.5078ZM38.8203 19.5078C38.8203 17.5597 37.2001 15.974 35.2096 15.974H27.5599C24.4893 15.974 21.9909 13.5287 21.9909 10.5234V9.02604H20.8893V10.5234C20.8893 14.1232 23.8819 17.0521 27.5599 17.0521H35.2096C36.5927 17.0521 37.7188 18.1542 37.7188 19.5078V21.0052H38.8218L38.8203 19.5078Z" fill="#101820"/>
</g>
</g>
<defs>
<clipPath id="clip0_210_2032">
<rect width="48" height="48" fill="white"/>
</clipPath>
<clipPath id="clip1_210_2032">
<rect width="48" height="48" fill="white" transform="translate(1)"/>
</clipPath>
</defs>
</svg>
