<svg xmlns="http://www.w3.org/2000/svg" xmlns:xlink="http://www.w3.org/1999/xlink" width="240" height="20.9" viewBox="0 0 240 20.9">
  <defs>
    <clipPath id="clip-path">
      <rect id="Rectangle_172" data-name="Rectangle 172" width="240" height="20.9" transform="translate(413 381)" fill="rgba(255,255,255,0)" stroke="#707070" stroke-width="1"/>
    </clipPath>
  </defs>
  <g id="admin-bg2" transform="translate(-413 -381)" clip-path="url(#clip-path)">
    <g id="admin-bg2-2" data-name="admin-bg2" transform="translate(337.1 354.5)">
      <path id="Path_1887" data-name="Path 1887" d="M96.1,26.7h-.8L88.9,46.3h-3V47h6.9v-.7H89.9L92,39.9h5.8l2.4,6.4H96.7V47H106v-.7h-2.5Zm-4,12.5,2.5-7.6,2.8,7.6Z"/>
      <path id="Path_1888" data-name="Path 1888" d="M125.2,46.4a1.84,1.84,0,0,1-1.6-.6,3.439,3.439,0,0,1-.5-2v-3a4.049,4.049,0,0,0-1.1-2.7,5.082,5.082,0,0,0-3.2-1.5v-.2a6.163,6.163,0,0,0,2.9-1.5,4,4,0,0,0,1.1-2.9,5.663,5.663,0,0,0-.3-1.8,4.188,4.188,0,0,0-1.1-1.6,3.991,3.991,0,0,0-1.9-1.1,8.246,8.246,0,0,0-2.8-.4h-8.4v.7H111V46.3h-2.7V47h8.3v-.7h-2.7V36.8H117a2.97,2.97,0,0,1,2.5,1.1,3.849,3.849,0,0,1,.8,2.6v3.3a2.861,2.861,0,0,0,.4,1.7,2.66,2.66,0,0,0,1,1.1,6.117,6.117,0,0,0,1.2.5,5.853,5.853,0,0,0,1.3.2,9.291,9.291,0,0,0,2.9-.5l-.2-.7A5.547,5.547,0,0,1,125.2,46.4Zm-7.9-10.3h-3.6V27.8h2.6a2.726,2.726,0,0,1,1.6.4,2.905,2.905,0,0,1,1.1,1.1,3.506,3.506,0,0,1,.6,1.4,7.772,7.772,0,0,1,.2,1.6,6.621,6.621,0,0,1-.1,1.5,5.638,5.638,0,0,1-.4,1.2,1.765,1.765,0,0,1-.8.9A3.73,3.73,0,0,1,117.3,36.1Z"/>
      <path id="Path_1889" data-name="Path 1889" d="M173.2,30.6a10.448,10.448,0,0,0-2.1-2.1,9.387,9.387,0,0,0-2.6-1.4,9.291,9.291,0,0,0-2.9-.5,6.632,6.632,0,0,0-2.8.5,9.386,9.386,0,0,0-2.6,1.4,10.447,10.447,0,0,0-2.1,2.1,8.7,8.7,0,0,0-1.4,2.9,10.463,10.463,0,0,0-.5,3.6,11.758,11.758,0,0,0,.8,4.3,9.553,9.553,0,0,0,2.2,3.3,9.189,9.189,0,0,0,3.1,2,8.424,8.424,0,0,0,3.5.7,9.223,9.223,0,0,0,3.6-.7,10.287,10.287,0,0,0,3.1-2,11.2,11.2,0,0,0,2.2-3.3,12.169,12.169,0,0,0,.8-4.3,13.61,13.61,0,0,0-.5-3.6C174.3,32.4,173.9,31.5,173.2,30.6Zm-2.9,13.7a5.8,5.8,0,0,1-9.4,0c-1.1-1.6-1.6-4-1.6-7.2a13.7,13.7,0,0,1,1.6-7.2,5.491,5.491,0,0,1,4.7-2.5,5.272,5.272,0,0,1,4.7,2.5c1.1,1.7,1.6,4.1,1.6,7.2A12.222,12.222,0,0,1,170.3,44.3Z"/>
      <path id="Path_1890" data-name="Path 1890" d="M221.4,27.8h2.7V46.3h-2.7V47h8.3v-.7H227V27.8h2.7v-.7h-8.3Z"/>
      <path id="Path_1891" data-name="Path 1891" d="M245,27.8h2.9l-4.8,14.7-5.5-14.7h3.5v-.7h-9.3v.7h2.5l7.3,19.6h.8l6.5-19.6h3v-.7H245Z"/>
      <path id="Path_1892" data-name="Path 1892" d="M254,27.8h2.7V46.3H254V47h8.3v-.7h-2.7V27.8h2.7v-.7H254Z"/>
      <path id="Path_1893" data-name="Path 1893" d="M277.2,27.8H280V41.1l-8.5-14h-6.9v.7h2.8V46.3h-2.8V47h6.6v-.7h-2.8V27.8h.1a1.884,1.884,0,0,0,.2.8l11.4,18.8h.8V27.8h2.8v-.7h-6.6v.7Z"/>
      <path id="Path_1894" data-name="Path 1894" d="M295.1,39.2v.7h4.1v2a5.047,5.047,0,0,1-1.2,3.4,4.223,4.223,0,0,1-3.3,1.4,5.4,5.4,0,0,1-4.7-2.4c-1.1-1.6-1.6-4-1.6-7.2s.5-5.6,1.7-7.2a5.272,5.272,0,0,1,4.7-2.5,8.969,8.969,0,0,1,1.8.2,5.214,5.214,0,0,1,2.3,1.3c.2.2.4.5.7.8a10.035,10.035,0,0,1,1.5,3.5h.6V26.6H301c-.2.3-.3.6-.5.7-.1.2-.4.2-.6.2a4.515,4.515,0,0,1-1.3-.3,12.271,12.271,0,0,0-3.9-.7,9.818,9.818,0,0,0-2.9.5,9.386,9.386,0,0,0-2.6,1.4,10.447,10.447,0,0,0-2.1,2.1,8.7,8.7,0,0,0-1.4,2.9,10.462,10.462,0,0,0-.5,3.6,11.758,11.758,0,0,0,.8,4.3,9.552,9.552,0,0,0,2.2,3.3,9.189,9.189,0,0,0,3.1,2,8.424,8.424,0,0,0,3.5.7,10.879,10.879,0,0,0,4.1-.9,4.083,4.083,0,0,1,1.6-.4,1.445,1.445,0,0,1,.7.2,1.612,1.612,0,0,1,.4.7h.6V39.8h3.1v-.7H295.1Z"/>
      <path id="Path_1895" data-name="Path 1895" d="M183.1,27.1h-6.2v.7h2.7V46.3h-2.7V47h8.2v-.7h-2.7V36.9h2.4a2.712,2.712,0,0,1,2.4,1.5,3.706,3.706,0,0,1,.5,1.5c.1.7.2,1.1.2,1.4h.7V31.8H188c0,.3-.1.7-.2,1.4a3.706,3.706,0,0,1-.5,1.5,2.712,2.712,0,0,1-2.4,1.5h-2.4V27.8h4.2c3.8,0,5.3,2.1,5.5,4.4h.7l-.3-5.1Z"/>
      <path id="Path_1896" data-name="Path 1896" d="M213,46.4h-4.7V27.8H211v-.7h-8.2v.7h2.7V46.4h-2.7v.7H219l.3-5.1h-.7C218.2,44.2,216.8,46.4,213,46.4Z"/>
      <path id="Path_1897" data-name="Path 1897" d="M137.6,27.1H127l-.3,5.1h.7c.2-2.3,1.7-4.4,5.5-4.4h1.8V46.3H132V47h8.2v-.7h-2.7V27.8h1.8c3.8,0,5.3,2.1,5.5,4.4h.7l-.3-5.1Z"/>
    </g>
  </g>
</svg>
