<svg width="38" height="38" viewBox="0 0 38 38" fill="none" xmlns="http://www.w3.org/2000/svg">
<path d="M10.1131 8.89218C15.7137 4.94448 23.7182 5.26715 28.8964 9.65745C34.1652 14.122 34.885 21.4192 30.5516 26.6433C26.4682 31.5647 19.1075 33.1866 12.9781 30.6481L12.6447 30.5039L6.35871 31.8331L6.25095 31.8516L6.0929 31.8645L5.93054 31.8588L5.86732 31.8516L5.70927 31.8231L5.55841 31.7745L5.41473 31.7117L5.30553 31.6518L5.15035 31.5418L5.03397 31.4362L4.92909 31.3177L4.85294 31.2106L4.75954 31.0464L4.6992 30.8951L4.65466 30.7337L4.63598 30.6266L4.62305 30.4696L4.62879 30.3083L4.63598 30.2454L4.66471 30.0884L4.69632 29.9856L6.34865 25.0585L6.31704 25.0071C3.1417 19.6573 4.57994 13.0255 9.78118 9.13347L10.1116 8.89361L10.1131 8.89218Z" fill="#101820"/>
<circle cx="13.1447" cy="18.654" r="1.72281" fill="#D0D3D4"/>
<circle cx="18.6564" cy="18.654" r="1.72281" fill="#D0D3D4"/>
<circle cx="24.172" cy="18.654" r="1.72281" fill="#D0D3D4"/>
</svg>
