<svg width="26" height="26" viewBox="0 0 26 26" fill="none" xmlns="http://www.w3.org/2000/svg">
<path d="M22.2857 5H3.71429C3.52485 5 3.34316 5.07662 3.20921 5.21301C3.07525 5.3494 3 5.53439 3 5.72727V20.2727C3 20.4656 3.07525 20.6506 3.20921 20.787C3.34316 20.9234 3.52485 21 3.71429 21H22.2857C22.4752 21 22.6568 20.9234 22.7908 20.787C22.9247 20.6506 23 20.4656 23 20.2727V5.72727C23 5.53439 22.9247 5.3494 22.7908 5.21301C22.6568 5.07662 22.4752 5 22.2857 5ZM13.4384 14.3014C13.313 14.4006 13.1588 14.4545 13 14.4545C12.8412 14.4545 12.687 14.4006 12.5616 14.3014L5.5692 8.76409L6.44598 7.61591L13 12.8059L19.554 7.61591L20.4308 8.76409L13.4384 14.3014Z" fill="#D0D3D4"/>
</svg>
