<svg width="41" height="41" viewBox="0 0 41 41" fill="none" xmlns="http://www.w3.org/2000/svg">
<path d="M24.6654 5.35181C22.621 5.35181 20.6603 6.16393 19.2147 7.60952C17.7692 9.05512 16.957 11.0158 16.957 13.0601V17.3518H12.832C12.6254 17.3518 12.457 17.5185 12.457 17.7268V23.3935C12.457 23.6001 12.6237 23.7685 12.832 23.7685H16.957V35.3935C16.957 35.6001 17.1237 35.7685 17.332 35.7685H22.9987C23.2054 35.7685 23.3737 35.6018 23.3737 35.3935V23.7685H27.5354C27.707 23.7685 27.857 23.6518 27.8987 23.4851L29.3154 17.8185C29.3293 17.7632 29.3304 17.7054 29.3187 17.6496C29.307 17.5938 29.2827 17.5414 29.2476 17.4964C29.2126 17.4514 29.1678 17.415 29.1165 17.39C29.0653 17.3649 29.0091 17.3519 28.952 17.3518H23.3737V13.0601C23.3737 12.8905 23.4071 12.7226 23.472 12.5658C23.5369 12.4091 23.6321 12.2667 23.752 12.1468C23.872 12.0269 24.0144 11.9317 24.1711 11.8668C24.3278 11.8019 24.4957 11.7685 24.6654 11.7685H28.9987C29.2054 11.7685 29.3737 11.6018 29.3737 11.3935V5.72681C29.3737 5.52014 29.207 5.35181 28.9987 5.35181H24.6654Z" fill="#101820"/>
</svg>
