              <svg
                width="34"
                height="34"
                viewBox="0 0 34 34"
                fill="none"
                xmlns="http://www.w3.org/2000/svg"
              >
                <rect x="0.5" y="0.5" width="33" height="33" stroke="#101820" />

                <path
                  d="M17.8159 25.8018C21.8509 23.7216 25 20.2768 25 16.0882C25 11.6212 21.4183 8 17 8C12.5817 8 9 11.6212 9 16.0882C9 20.2768 12.1491 23.7216 16.1841 25.8018C16.6968 26.0661 17.3032 26.0661 17.8159 25.8018Z"
                  stroke="#101820"
                  stroke-linecap="round"
                  stroke-linejoin="round"
                />

                <path
                  d="M20 16.0881C20 17.7633 18.6569 19.1212 17 19.1212C15.3431 19.1212 14 17.7633 14 16.0881C14 14.413 15.3431 13.0551 17 13.0551C18.6569 13.0551 20 14.413 20 16.0881Z"
                  stroke="#101820"
                  stroke-linecap="round"
                  stroke-linejoin="round"
                />
              </svg>
