 <svg
                width="34"
                height="34"
                viewBox="0 0 34 34"
                fill="none"
                xmlns="http://www.w3.org/2000/svg"
              >
                <rect x="0.5" y="0.5" width="33" height="33" stroke="#101820" />

                <path
                  d="M16.99 7C11.47 7 7 11.48 7 17C7 22.52 11.47 27 16.99 27C22.52 27 27 22.52 27 17C27 11.48 22.52 7 16.99 7ZM16.99 26C12.57 26 8 21.42 8 17C8 12.58 12.58 8 17 8C21.42 8 26 12.58 26 17C26 21.42 21.41 26 16.99 26ZM16.78 12H16.72C16.32 12 16 12.32 16 12.72V17.44C16 17.79 16.18 18.12 16.49 18.3L20.64 20.79C20.98 20.99 21.42 20.89 21.62 20.55C21.6702 20.469 21.7036 20.3788 21.7182 20.2846C21.7328 20.1905 21.7283 20.0943 21.705 20.002C21.6817 19.9096 21.64 19.8229 21.5824 19.7469C21.5249 19.671 21.4526 19.6074 21.37 19.56L17.5 17.26V12.72C17.5 12.32 17.18 12 16.78 12Z"
                  fill="#101820"
                />
              </svg>
