<svg width="41" height="41" viewBox="0 0 41 41" fill="none" xmlns="http://www.w3.org/2000/svg">
<path d="M20.9973 15.353C18.1301 15.353 15.7902 17.6928 15.7902 20.56C15.7902 23.4272 18.1301 25.767 20.9973 25.767C23.8644 25.767 26.2043 23.4272 26.2043 20.56C26.2043 17.6928 23.8644 15.353 20.9973 15.353ZM36.6144 20.56C36.6144 18.4038 36.634 16.267 36.5129 14.1147C36.3918 11.6147 35.8215 9.39594 33.9934 7.56781C32.1613 5.73578 29.9465 5.16937 27.4465 5.04828C25.2902 4.92719 23.1535 4.94672 21.0012 4.94672C18.8449 4.94672 16.7082 4.92719 14.5559 5.04828C12.0558 5.16937 9.8371 5.73969 8.00897 7.56781C6.17694 9.39984 5.61054 11.6147 5.48944 14.1147C5.36835 16.2709 5.38788 18.4077 5.38788 20.56C5.38788 22.7123 5.36835 24.853 5.48944 27.0053C5.61054 29.5053 6.18085 31.7241 8.00897 33.5522C9.84101 35.3842 12.0558 35.9506 14.5559 36.0717C16.7121 36.1928 18.8488 36.1733 21.0012 36.1733C23.1574 36.1733 25.2941 36.1928 27.4465 36.0717C29.9465 35.9506 32.1652 35.3803 33.9934 33.5522C35.8254 31.7202 36.3918 29.5053 36.5129 27.0053C36.6379 24.853 36.6144 22.7163 36.6144 20.56ZM20.9973 28.5717C16.5637 28.5717 12.9855 24.9936 12.9855 20.56C12.9855 16.1264 16.5637 12.5483 20.9973 12.5483C25.4308 12.5483 29.009 16.1264 29.009 20.56C29.009 24.9936 25.4308 28.5717 20.9973 28.5717ZM29.3371 14.0913C28.3019 14.0913 27.466 13.2553 27.466 12.2202C27.466 11.185 28.3019 10.3491 29.3371 10.3491C30.3723 10.3491 31.2082 11.185 31.2082 12.2202C31.2085 12.466 31.1603 12.7094 31.0664 12.9366C30.9725 13.1637 30.8347 13.3701 30.6609 13.5439C30.487 13.7177 30.2807 13.8555 30.0535 13.9495C29.8264 14.0434 29.5829 14.0916 29.3371 14.0913Z" fill="#101820"/>
</svg>
