<svg width="26" height="26" viewBox="0 0 26 26" fill="none" xmlns="http://www.w3.org/2000/svg">
<path d="M13.0001 9.77592C12.145 9.77592 11.3249 10.1156 10.7202 10.7202C10.1156 11.3249 9.77592 12.145 9.77592 13.0001C9.77592 13.8552 10.1156 14.6752 10.7202 15.2799C11.3249 15.8845 12.145 16.2242 13.0001 16.2242C13.8552 16.2242 14.6752 15.8845 15.2799 15.2799C15.8845 14.6752 16.2242 13.8552 16.2242 13.0001C16.2242 12.145 15.8845 11.3249 15.2799 10.7202C14.6752 10.1156 13.8552 9.77592 13.0001 9.77592ZM13.0001 7.62649C14.4252 7.62649 15.792 8.19263 16.7997 9.20037C17.8075 10.2081 18.3736 11.5749 18.3736 13.0001C18.3736 14.4252 17.8075 15.792 16.7997 16.7997C15.792 17.8075 14.4252 18.3736 13.0001 18.3736C11.5749 18.3736 10.2081 17.8075 9.20037 16.7997C8.19263 15.792 7.62649 14.4252 7.62649 13.0001C7.62649 11.5749 8.19263 10.2081 9.20037 9.20037C10.2081 8.19263 11.5749 7.62649 13.0001 7.62649ZM19.9857 7.35781C19.9857 7.7141 19.8442 8.0558 19.5922 8.30774C19.3403 8.55967 18.9986 8.70121 18.6423 8.70121C18.286 8.70121 17.9443 8.55967 17.6924 8.30774C17.4404 8.0558 17.2989 7.7141 17.2989 7.35781C17.2989 7.00153 17.4404 6.65983 17.6924 6.40789C17.9443 6.15596 18.286 6.01442 18.6423 6.01442C18.9986 6.01442 19.3403 6.15596 19.5922 6.40789C19.8442 6.65983 19.9857 7.00153 19.9857 7.35781ZM13.0001 4.40235C10.3412 4.40235 9.90703 4.40988 8.67004 4.46469C7.82746 4.50445 7.26217 4.6173 6.73771 4.82149C6.29881 4.98263 5.90202 5.24091 5.57702 5.57702C5.24064 5.90201 4.982 6.29878 4.82042 6.73771C4.61622 7.26431 4.50338 7.82854 4.46469 8.67004C4.4088 9.85652 4.40235 10.2714 4.40235 13.0001C4.40235 15.6589 4.40988 16.0931 4.46469 17.3301C4.50445 18.1716 4.6173 18.7379 4.82042 19.2613C5.00312 19.7288 5.21806 20.0652 5.57487 20.422C5.93704 20.7831 6.27343 20.9991 6.73556 21.1775C7.26646 21.3828 7.83176 21.4967 8.67004 21.5354C9.85652 21.5913 10.2714 21.5978 13.0001 21.5978C15.6589 21.5978 16.0931 21.5902 17.3301 21.5354C18.1705 21.4957 18.7369 21.3828 19.2613 21.1797C19.6996 21.0177 20.0961 20.76 20.422 20.4252C20.7842 20.0631 21.0002 19.7267 21.1786 19.2646C21.3828 18.7347 21.4967 18.1683 21.5354 17.3301C21.5913 16.1436 21.5978 15.7288 21.5978 13.0001C21.5978 10.3412 21.5902 9.90703 21.5354 8.67004C21.4957 7.82961 21.3828 7.26217 21.1786 6.73771C21.0167 6.29922 20.7585 5.90261 20.4231 5.57702C20.0982 5.24047 19.7014 4.9818 19.2624 4.82042C18.7358 4.61622 18.1705 4.50338 17.3301 4.46469C16.1436 4.4088 15.7288 4.40235 13.0001 4.40235ZM13.0001 2.25293C15.9201 2.25293 16.2844 2.26368 17.43 2.31741C18.5746 2.37115 19.3538 2.55063 20.0394 2.81715C20.7487 3.09013 21.3463 3.45983 21.9438 4.0563C22.4903 4.59354 22.9132 5.24341 23.183 5.96069C23.4484 6.64528 23.629 7.42552 23.6827 8.57009C23.7332 9.71573 23.7472 10.0801 23.7472 13.0001C23.7472 15.9201 23.7364 16.2844 23.6827 17.43C23.629 18.5746 23.4484 19.3538 23.183 20.0394C22.9139 20.7571 22.491 21.4071 21.9438 21.9438C21.4064 22.4901 20.7566 22.9129 20.0394 23.183C19.3548 23.4484 18.5746 23.629 17.43 23.6827C16.2844 23.7332 15.9201 23.7472 13.0001 23.7472C10.0801 23.7472 9.71573 23.7364 8.57009 23.6827C7.42552 23.629 6.64635 23.4484 5.96069 23.183C5.24313 22.9137 4.59315 22.4908 4.0563 21.9438C3.50971 21.4067 3.08683 20.7568 2.81715 20.0394C2.55063 19.3548 2.37115 18.5746 2.31741 17.43C2.2669 16.2844 2.25293 15.9201 2.25293 13.0001C2.25293 10.0801 2.26368 9.71573 2.31741 8.57009C2.37115 7.42445 2.55063 6.64635 2.81715 5.96069C3.08609 5.24297 3.50906 4.59292 4.0563 4.0563C4.5933 3.50952 5.24324 3.08662 5.96069 2.81715C6.64635 2.55063 7.42445 2.37115 8.57009 2.31741C9.71573 2.2669 10.0801 2.25293 13.0001 2.25293Z" fill="#D0D3D4"/>
</svg>
