<svg width="26" height="26" viewBox="0 0 26 26" fill="none" xmlns="http://www.w3.org/2000/svg">
<path d="M7.56155 5.47716C7.56126 6.04722 7.33453 6.59383 6.93123 6.99672C6.52794 7.39961 5.98111 7.6258 5.41105 7.62551C4.84098 7.62523 4.29438 7.3985 3.89149 6.9952C3.48859 6.5919 3.26241 6.04507 3.2627 5.47501C3.26298 4.90495 3.48971 4.35835 3.89301 3.95545C4.2963 3.55256 4.84313 3.32638 5.4132 3.32666C5.98326 3.32695 6.52986 3.55368 6.93275 3.95697C7.33565 4.36027 7.56183 4.9071 7.56155 5.47716ZM7.62603 9.21716H3.32718V22.6726H7.62603V9.21716ZM14.4182 9.21716H10.1409V22.6726H14.3752V15.6117C14.3752 11.6783 19.5016 11.3129 19.5016 15.6117V22.6726H23.7467V14.1501C23.7467 7.51911 16.1592 7.7663 14.3752 11.0227L14.4182 9.21716Z" fill="#D0D3D4"/>
</svg>
