<svg width="60" height="60" viewBox="0 0 60 60" fill="none" xmlns="http://www.w3.org/2000/svg">
<path d="M45.3924 42.205L42.4249 45.14C40.2374 47.285 37.3999 50.045 33.9099 53.42C32.861 54.4343 31.459 55.0012 29.9999 55.0012C28.5409 55.0012 27.1389 54.4343 26.0899 53.42L17.3624 44.93C16.2649 43.8525 15.3474 42.945 14.6074 42.205C11.5633 39.1607 9.49035 35.2821 8.65057 31.0597C7.8108 26.8373 8.24196 22.4606 9.88953 18.4832C11.5371 14.5058 14.3271 11.1063 17.9067 8.71452C21.4863 6.32274 25.6948 5.04614 29.9999 5.04614C34.3051 5.04614 38.5135 6.32274 42.0931 8.71452C45.6728 11.1063 48.4628 14.5058 50.1103 18.4832C51.7579 22.4606 52.1891 26.8373 51.3493 31.0597C50.5095 35.2821 48.4365 39.1607 45.3924 42.205ZM36.2499 27.5C36.2499 25.8424 35.5914 24.2527 34.4193 23.0806C33.2472 21.9085 31.6575 21.25 29.9999 21.25C28.3423 21.25 26.7526 21.9085 25.5805 23.0806C24.4084 24.2527 23.7499 25.8424 23.7499 27.5C23.7499 29.1576 24.4084 30.7474 25.5805 31.9195C26.7526 33.0916 28.3423 33.75 29.9999 33.75C31.6575 33.75 33.2472 33.0916 34.4193 31.9195C35.5914 30.7474 36.2499 29.1576 36.2499 27.5Z" fill="#101820"/>
</svg>
