<svg width="210" height="70" id="Layer_2" data-name="Layer 2" xmlns="http://www.w3.org/2000/svg" viewBox="0 0 305.24 74.07">
  <defs>
    <style>
      .cls-1 {
        fill: #fff;
        stroke-width: 0px;
      }
    </style>
  </defs>
  <g id="Layer_1-2" data-name="Layer 1">
    <g>
      <path class="cls-1" d="m5.97,47c0,.74.58,1.32,1.33,1.32s1.33-.58,1.33-1.29-.6-1.29-1.33-1.29-1.33.59-1.33,1.26Z"></path>
      <path class="cls-1" d="m58.56,46.38c-.69,0-1.26.59-1.26,1.29s.57,1.32,1.26,1.32,1.33-.62,1.33-1.32-.62-1.29-1.33-1.29Z"></path>
      <path class="cls-1" d="m62.31,46.38c-.71,0-1.33.6-1.33,1.29,0,.74.58,1.32,1.33,1.32.7,0,1.26-.59,1.26-1.32s-.58-1.29-1.26-1.29Z"></path>
      <path class="cls-1" d="m90.43,46.38c-.71,0-1.33.6-1.33,1.29,0,.74.58,1.32,1.33,1.32.7,0,1.26-.59,1.26-1.32s-.58-1.29-1.26-1.29Z"></path>
      <path class="cls-1" d="m86.68,46.38c-.69,0-1.26.59-1.26,1.29s.57,1.32,1.26,1.32,1.33-.62,1.33-1.32-.62-1.29-1.33-1.29Z"></path>
      <path class="cls-1" d="m42.66,35.5c.7,0,1.26-.59,1.26-1.32s-.58-1.29-1.26-1.29-1.33.6-1.33,1.29c0,.74.58,1.32,1.33,1.32Z"></path>
      <path class="cls-1" d="m81.45,33.15c.73,0,1.33-.58,1.33-1.29s-.6-1.29-1.33-1.29-1.33.59-1.33,1.26c0,.74.58,1.32,1.33,1.32Z"></path>
      <path class="cls-1" d="m101.9,29.52l.03.02c.28.2.29.41.29,1.51v9.07c0,2.01-.26,3.11-1.63,3.11h-4.54c-.84,0-2.14-.82-2.2-2.04v-3.57c0-1.02.16-1.5.3-1.81v-.02s.01-.42.01-.42l-2.9,1.39.08.24.03.02c.28.2.29.41.29,1.51v2.14c0,.52,0,1.6-.59,2.18-.26.25-.61.38-1.04.38h-6.11c1.74-1.18,2.73-2.87,2.62-4.49-.21-2.7-2.8-3.66-5.17-3.66-3.05,0-4.89,1.33-5.07,3.66-.11,1.63.85,3.31,2.53,4.49h-5.49c-.84,0-2.14-.82-2.2-2.04v-3.57c0-1.02.16-1.5.3-1.81v-.02s.01-.42.01-.42l-2.91,1.39.08.24.03.02c.28.2.29.41.29,1.51v2.14c0,.52,0,1.6-.59,2.18-.26.25-.61.38-1.04.38h-14.09c-.84,0-2.14-.82-2.2-2.04v-3.57c0-1.02.16-1.5.3-1.81v-.02s.01-.42.01-.42l-2.9,1.39.08.24.03.02c.28.2.29.41.29,1.51v2.14c0,.52,0,1.6-.59,2.18-.26.25-.61.38-1.04.38h-30.92c-.78,0-2.05-.78-2.2-1.95v-1.1c0-2.35-1.93-4.84-5.51-4.84-.43,0-.87.04-1.31.11-3.47.64-5.35,3.2-5.37,3.23l-.03.05.19.82.17-.16s2.33-2.11,4.8-2.38c.36-.04.7-.06,1.02-.06,3.49,0,3.87,2.5,3.87,3.57,0,.09,0,.19,0,.3.01.69.03,1.63-.45,2.11-.2.2-.48.3-.84.3H1.61c-.55,0-.97.17-1.25.49-.35.41-.4.99-.32,1.37.83,3.77,3.58,6.02,7.36,6.02,2.57,0,4.25-.96,6.21-3.53l.11-.15-1.08-.32-.06.06c-1.54,1.68-3.11,2.4-5.25,2.4-2.5,0-4.49-1.51-5.19-3.93l-.02-.09c-.06-.22-.15-.53,0-.71.1-.13.32-.2.65-.2h8.62c1.16,0,1.97-.49,2.39-1.44,1.03,1.34,2.68,1.44,3.17,1.44.06,0,.1,0,.1,0h31.08c1.26,0,2.12-.49,2.58-1.45,1.03,1.34,2.68,1.45,3.18,1.45.06,0,.1,0,.1,0h14.25c1.26,0,2.12-.49,2.58-1.45,1.03,1.34,2.68,1.45,3.18,1.45.06,0,.1,0,.1,0h5.51c.56,0,1.15-.08,1.79-.24.64.16,1.23.24,1.79.24h7.75c1.26,0,2.12-.49,2.58-1.45,1.03,1.34,2.68,1.45,3.18,1.45.06,0,.1,0,.1,0h4.7c1.89,0,2.93-1.16,2.93-3.27v-11.24c0-1.02.16-1.5.3-1.81v-.02s.01-.42.01-.42l-2.9,1.39.08.24Zm-20.51,13.21c-1.59-.87-2.7-2.46-2.7-3.88,0-1.76,1.06-2.89,2.7-2.89s2.79,1.13,2.79,2.89c0,1.38-1.17,3-2.79,3.88Z"></path>
      <path class="cls-1" d="m141.53,33.15c.73,0,1.33-.58,1.33-1.29s-.6-1.29-1.33-1.29-1.33.59-1.33,1.26c0,.74.58,1.32,1.33,1.32Z"></path>
      <path class="cls-1" d="m146.2,41.44v-3.3c0-2.12-1.29-3.03-4.32-3.03-3.18,0-5.57,2.06-5.57,4.8,0,1.3.42,2.46,1.18,3.32h-19.56c-1.76,0-3.25-.79-3.91-2.05-.65-1.25-.39-2.79.71-4.21l.05-.07-.51-.9-.12.13c-1.74,1.87-2.27,3.97-1.44,5.78.76,1.66,2.54,2.74,4.53,2.74h25.4c2.43,0,3.56-1.92,3.56-3.21Zm-2.18-.89c0,1.9-.6,2.68-2.07,2.68-1.61,0-3.33-1.52-3.33-3.78,0-1.87,1.5-3.44,3.26-3.44.66,0,1.13.15,1.46.46.68.66.68,2.03.68,3.77v.31Z"></path>
      <path class="cls-1" d="m154.6,35.27c-3.16,0-5.54,2.02-5.54,4.71s1.88,4.67,4.38,4.67c1.23,0,2.28-.35,3.2-1.08-.31,1.07-1.5,4.01-5.05,4.01-2.14,0-3.71-.72-5.25-2.4l-.06-.06-1.08.32.11.15c1.96,2.57,3.64,3.53,6.21,3.53,3.78,0,6.53-2.25,7.37-6.02.01-.07.02-.16.03-.27v-4.29c0-2.38-2.65-3.27-4.32-3.27Zm2.13,5.35c0,1.95-.65,2.86-2.04,2.86-1.67,0-3.08-1.81-3.08-3.96,0-1.88,1.34-3.41,2.98-3.41,1,0,1.57.35,1.86,1.14.28.76.27,1.87.27,3.16v.21Z"></path>
      <path class="cls-1" d="m163.59,27.62c-1.25.62-1.39.69-1.85.95-.25.14-.6.33-1.27.7l-.11.06.34.7.13-.08c.08-.05.29-.16.4-.16.29,0,.34.24.34,1.49v13.38h2.18v-14.6c0-1.39.09-1.61.3-1.98l.05-.08-.42-.41-.09.04Z"></path>
      <path class="cls-1" d="m163.61,25.88l.05-.04v-.52l-.04-.17-.18.06c-.47.17-.61.22-.95.22-.26,0-.47-.08-.62-.25-.2-.22-.28-.57-.23-.95.02-.37.26-.64.57-.64h.05c.2,0,.4.16.51.38l.04.09,1.01-.21-.1-.16c-.24-.37-.77-.66-1.32-.73-.09-.01-.17-.02-.26-.02-.94,0-1.72.63-1.81,1.48-.02.36.09.73.3,1.01-.23,0-.38-.03-.42-.11l-.04-.05-.13-.13-.72,1.09h3.1c.54,0,.98-.2,1.19-.37Z"></path>
      <path class="cls-1" d="m186.19,35.46c.73,0,1.33-.58,1.33-1.29s-.6-1.29-1.33-1.29-1.33.59-1.33,1.26c0,.74.58,1.32,1.33,1.32Z"></path>
      <path class="cls-1" d="m189.93,35.46c.73,0,1.33-.58,1.33-1.29s-.6-1.29-1.33-1.29-1.33.59-1.33,1.26c0,.74.58,1.32,1.33,1.32Z"></path>
      <path class="cls-1" d="m203.26,41.38v-3.75c0-1.02.16-1.5.3-1.81v-.02s.01-.42.01-.42l-2.9,1.39.08.24.03.02c.28.2.29.41.29,1.51v1.59c0,2.01-.26,3.11-1.63,3.11h-22.17c-1.84,0-3.37-.85-3.98-2.21-.64-1.43-.17-3.14,1.31-4.68l.06-.06-.43-.88-.13.12c-2.16,1.97-2.93,4.24-2.12,6.23.71,1.74,2.56,2.9,4.6,2.9h23.75c1.89,0,2.93-1.16,2.93-3.27Z"></path>
      <path class="cls-1" d="m207.55,35.46l.1.19c.08.15.36,1.68.36,2.5v8.42c0,.13-.04,3.14-3.49,3.14-.76,0-1.61-.22-2.26-.59l-.21-.12.04,1.06.06.04c1.35.81,2.08,1.03,3.37,1.03,2.61,0,4.66-1.88,4.66-4.28v-8.7c0-.81.28-2.34.36-2.5l.12-.19h-3.12Z"></path>
      <path class="cls-1" d="m216.17,27.62c-1.25.62-1.39.69-1.85.95-.25.14-.6.33-1.27.7l-.11.06.34.7.13-.08c.08-.05.29-.16.4-.16.29,0,.34.24.34,1.49v13.38h2.18v-14.6c0-1.39.09-1.61.3-1.98l.05-.08-.42-.41-.09.04Z"></path>
      <path class="cls-1" d="m218.83,24.11c-.63.76-1.29,1.11-2.07,1.11-.45,0-.78-.05-1.69-.36-1.04-.36-1.51-.46-2.03-.46-1.16,0-2.26.73-3.1,2.04l-.07.11.49.32.08-.09c.89-1.01,1.19-1.21,1.91-1.21.49,0,.87.09,1.82.36q1.66.53,2.09.53c1.08,0,2.34-.83,3.07-2.02l.06-.1-.49-.32-.08.09Z"></path>
    </g>
    <path class="cls-1" d="m231.17,0v74.07h25.73v-1.88h-3.43c-2.08,0-5.72-1.75-4.73-4.28l9.18-24.18,3.69-9.69,2.9-7.64,17.33,45.78h-8.62v1.89h32.02V0h-74.07Zm72.18,72.19h-12.22s-4.3-11.31-4.3-11.31l-.7-1.86-7.64-20.11-9.36-24.64-.4-1.05h-1.03l-.45,1.18-2.26,5.95-1.39,3.65-5.52,14.55-3.69,9.69-7.78,20.48c-1.12,2.46-2.67,3.47-5.49,3.47h-8.08V1.88h70.31v70.31Z"></path>
  </g>
</svg>
