<svg width="60" height="60" viewBox="0 0 60 60" fill="none" xmlns="http://www.w3.org/2000/svg">
<path fill-rule="evenodd" clip-rule="evenodd" d="M12.5 50C10.5109 50 8.60322 49.2098 7.1967 47.8033C5.79018 46.3968 5 44.4891 5 42.5V17.5C5 15.5109 5.79018 13.6032 7.1967 12.1967C8.60322 10.7902 10.5109 10 12.5 10H47.5C49.4891 10 51.3968 10.7902 52.8033 12.1967C54.2098 13.6032 55 15.5109 55 17.5V42.5C55 44.4891 54.2098 46.3968 52.8033 47.8033C51.3968 49.2098 49.4891 50 47.5 50H12.5ZM19.0625 20.55C18.8078 20.3325 18.5121 20.1685 18.1928 20.0675C17.8735 19.9665 17.5372 19.9308 17.2038 19.9623C16.8704 19.9938 16.5467 20.092 16.252 20.251C15.9573 20.41 15.6975 20.6266 15.4881 20.8879C15.2787 21.1493 15.124 21.45 15.033 21.7723C14.9421 22.0946 14.9168 22.4318 14.9587 22.7641C15.0007 23.0963 15.1089 23.4168 15.277 23.7064C15.4452 23.996 15.6698 24.2489 15.9375 24.45L25.3125 31.9525C26.6427 33.0175 28.296 33.5978 30 33.5978C31.704 33.5978 33.3573 33.0175 34.6875 31.9525L44.0625 24.4525C44.3189 24.2473 44.5324 23.9936 44.6908 23.7059C44.8491 23.4182 44.9493 23.1022 44.9855 22.7758C45.0217 22.4494 44.9933 22.119 44.9018 21.8036C44.8104 21.4882 44.6577 21.1939 44.4525 20.9375C44.2473 20.6811 43.9936 20.4676 43.7059 20.3092C43.4182 20.1509 43.1022 20.0507 42.7758 20.0145C42.4494 19.9783 42.119 20.0067 41.8036 20.0982C41.4882 20.1896 41.1939 20.3423 40.9375 20.5475L31.5625 28.0475C31.1191 28.4025 30.568 28.5959 30 28.5959C29.432 28.5959 28.8809 28.4025 28.4375 28.0475L19.0625 20.5475V20.55Z" fill="#101820"/>
</svg>
