<svg width="26" height="26" viewBox="0 0 26 26" fill="none" xmlns="http://www.w3.org/2000/svg">
<path d="M20.6641 16.3983L17.9347 16.0866C17.6138 16.0489 17.2885 16.0845 16.9832 16.1906C16.678 16.2966 16.4008 16.4705 16.1724 16.6991L14.1952 18.6764C11.1446 17.1249 8.66512 14.6454 7.11365 11.5949L9.10163 9.6069C9.5637 9.14483 9.78937 8.50008 9.71415 7.84458L9.40252 5.13663C9.34159 4.61243 9.09002 4.12893 8.6957 3.7782C8.30137 3.42746 7.79183 3.23399 7.2641 3.23462H5.40507C4.19079 3.23462 3.18068 4.24473 3.2559 5.45901C3.82543 14.6359 11.1648 21.9646 20.331 22.5341C21.5453 22.6094 22.5554 21.5992 22.5554 20.385V18.5259C22.5662 17.4406 21.7495 16.5272 20.6641 16.3983Z" fill="#D0D3D4"/>
</svg>
