                  <svg
                    class="me-3"
                    width="26"
                    height="30"
                    viewBox="0 0 26 30"
                    fill="none"
                    xmlns="http://www.w3.org/2000/svg"
                  >
                    <path
                      d="M22.1927 22.3154L20.4205 24.078C19.114 25.3661 17.4194 27.0236 15.3351 29.0504C14.7087 29.6595 13.8714 30 13 30C12.1286 30 11.2913 29.6595 10.6649 29.0504L5.45263 23.9519C4.79718 23.3048 4.24923 22.7598 3.80729 22.3154C1.9893 20.4872 0.751261 18.1579 0.249729 15.6222C-0.251803 13.0864 0.00569463 10.4581 0.989661 8.0695C1.97363 5.68091 3.63987 3.63936 5.77769 2.20301C7.9155 0.76665 10.4289 0 13 0C15.5711 0 18.0845 0.76665 20.2223 2.20301C22.3601 3.63936 24.0264 5.68091 25.0103 8.0695C25.9943 10.4581 26.2518 13.0864 25.7503 15.6222C25.2487 18.1579 24.0107 20.4872 22.1927 22.3154ZM16.7326 13.4845C16.7326 12.489 16.3394 11.5343 15.6394 10.8304C14.9394 10.1265 13.99 9.73108 13 9.73108C12.01 9.73108 11.0606 10.1265 10.3606 10.8304C9.66063 11.5343 9.26737 12.489 9.26737 13.4845C9.26737 14.4799 9.66063 15.4346 10.3606 16.1385C11.0606 16.8424 12.01 17.2378 13 17.2378C13.99 17.2378 14.9394 16.8424 15.6394 16.1385C16.3394 15.4346 16.7326 14.4799 16.7326 13.4845Z"
                      fill="#101820"
                    />
                  </svg>
