              <svg
                width="34"
                height="34"
                viewBox="0 0 34 34"
                fill="none"
                xmlns="http://www.w3.org/2000/svg"
              >
                <rect x="0.5" y="0.5" width="33" height="33" stroke="#101820" />

                <g clip-path="url(#clip0_23_1346)">
                  <path
                    d="M8.30633 27H11.2831V23.4448H22.7169V27H25.6937V23.4448H27V18.6408C26.9998 17.7036 26.6748 16.7955 26.0804 16.0715C25.4861 15.3475 24.6592 14.8525 23.741 14.6709L22.3892 7H11.6108L10.2453 14.6709C9.33001 14.856 8.50681 15.3525 7.91531 16.076C7.32381 16.7996 7.00042 17.7058 7 18.6408V23.4448H8.30633V27ZM22.7169 18.6955H11.2831V17.6472H22.7169V18.6955ZM22.7169 20.6007H11.2831V19.5524H22.7169V20.6007ZM10.2362 25.9517H9.35321V23.4448H10.2362V25.9517ZM24.6468 25.9517H23.7638V23.4448H24.6468V25.9517ZM21.5107 8.04831L21.5835 8.46764H12.4119L12.4893 8.04831H21.5107ZM12.2299 9.51595H21.7883L22.6987 14.5934H11.3332L12.2299 9.51595ZM8.04688 22.3965V18.6408C8.05154 17.8758 8.34756 17.1414 8.87452 16.5874C9.40149 16.0335 10.1197 15.7018 10.8826 15.66H23.1129C23.8789 15.7008 24.6002 16.0339 25.1285 16.5909C25.6568 17.1479 25.9519 17.8864 25.9531 18.6545V22.4102H8.04688V22.3965Z"
                    fill="#101820"
                  />

                  <path
                    d="M9.79492 17.6472V20.6007"
                    stroke="#101820"
                    stroke-width="2.3"
                    stroke-miterlimit="10"
                  />

                  <path
                    d="M24.2051 17.6472V20.6007"
                    stroke="#101820"
                    stroke-width="2.3"
                    stroke-miterlimit="10"
                  />
                </g>

                <defs>
                  <clipPath id="clip0_23_1346">
                    <rect
                      width="20"
                      height="20"
                      fill="white"
                      transform="translate(7 7)"
                    />
                  </clipPath>
                </defs>
              </svg>
