
              <svg
                width="34"
                height="34"
                viewBox="0 0 34 34"
                fill="none"
                xmlns="http://www.w3.org/2000/svg"
              >
                <rect x="0.5" y="0.5" width="33" height="33" stroke="#101820" />

                <path
                  d="M11.2677 22.2966H23.9231C24.3311 22.2966 24.7224 22.138 25.0109 21.8558C25.2995 21.5736 25.4615 21.1908 25.4615 20.7917V11.0098C25.4615 10.6107 25.2995 10.2279 25.0109 9.94568C24.7224 9.66345 24.3311 9.5049 23.9231 9.5049H10.0769C9.6689 9.5049 9.27758 9.66345 8.98907 9.94568C8.70055 10.2279 8.53846 10.6107 8.53846 11.0098V24.4335L11.2677 22.2966ZM11.8077 23.8015L8.24923 26.5855C8.13612 26.6739 7.99983 26.7292 7.856 26.7452C7.71218 26.7612 7.56667 26.7371 7.43619 26.6758C7.30572 26.6145 7.19557 26.5185 7.11841 26.3987C7.04125 26.2789 7.00021 26.1402 7 25.9986V11.0098C7 10.2116 7.32417 9.446 7.90121 8.88155C8.47824 8.3171 9.26087 8 10.0769 8H23.9231C24.7391 8 25.5218 8.3171 26.0988 8.88155C26.6758 9.446 27 10.2116 27 11.0098V20.7917C27 21.5899 26.6758 22.3555 26.0988 22.9199C25.5218 23.4844 24.7391 23.8015 23.9231 23.8015H11.8077Z"
                  fill="black"
                />
              </svg>
