<svg width="5" height="9" viewBox="0 0 5 9" fill="none" xmlns="http://www.w3.org/2000/svg">
<path d="M0.990781 0.178101L4.87326 4.16755C4.91935 4.21504 4.95207 4.26649 4.97142 4.3219C4.99078 4.37731 5.0003 4.43668 4.99999 4.5C4.99999 4.56332 4.99032 4.62269 4.97096 4.6781C4.95161 4.73351 4.91904 4.78496 4.87326 4.83245L0.990782 8.83377C0.883256 8.94459 0.748847 9 0.587557 9C0.426267 9 0.288019 8.94063 0.172811 8.8219C0.0576043 8.70317 9.15614e-07 8.56464 9.01774e-07 8.40633C8.87934e-07 8.24802 0.0576042 8.1095 0.172811 7.99077L3.5599 4.5L0.172811 1.00924C0.065284 0.898417 0.0115206 0.761795 0.0115206 0.599368C0.0115206 0.436941 0.0691244 0.296518 0.184332 0.178101C0.299539 0.0593676 0.433947 3.99177e-07 0.587557 3.85748e-07C0.741166 3.72319e-07 0.875574 0.0593675 0.990781 0.178101Z" fill="#C10016"/>
</svg>
