<svg width="26" height="26" viewBox="0 0 26 26" fill="none" xmlns="http://www.w3.org/2000/svg">
<path d="M24.2418 6.55177C23.4142 6.92792 22.5222 7.1751 21.598 7.29332C22.5437 6.72372 23.2745 5.82096 23.6184 4.7355C22.7264 5.27286 21.7377 5.64901 20.6952 5.86395C19.8462 4.9397 18.6533 4.40234 17.2991 4.40234C14.7736 4.40234 12.7101 6.46579 12.7101 9.01286C12.7101 9.37826 12.7531 9.73292 12.8283 10.0661C9.00235 9.87263 5.59551 8.03487 3.32787 5.25137C2.93023 5.92844 2.70454 6.72372 2.70454 7.562C2.70454 9.16332 3.51057 10.5819 4.75724 11.388C3.99419 11.388 3.28488 11.173 2.66155 10.8506V10.8829C2.66155 13.1183 4.25212 14.9883 6.35856 15.4074C5.68227 15.5925 4.97228 15.6182 4.28436 15.4826C4.57626 16.3988 5.14794 17.2005 5.91902 17.7749C6.6901 18.3494 7.62183 18.6677 8.58321 18.6853C6.95355 19.9754 4.93349 20.6728 2.855 20.6627C2.48959 20.6627 2.12419 20.6413 1.75879 20.5983C3.80074 21.9094 6.22959 22.6725 8.8304 22.6725C17.2991 22.6725 21.9526 15.6438 21.9526 9.55022C21.9526 9.34602 21.9526 9.15257 21.9419 8.94838C22.8447 8.30355 23.6184 7.48677 24.2418 6.55177Z" fill="#D0D3D4"/>
</svg>
