<svg width="41" height="41" viewBox="0 0 41 41" fill="none" xmlns="http://www.w3.org/2000/svg">
<g clip-path="url(#clip0_117_315)">
<path d="M13.563 38.0601C28.658 38.0601 36.9155 25.5526 36.9155 14.7251C36.9155 14.3751 36.9155 14.0201 36.9005 13.6701C38.5082 12.5063 39.8957 11.0655 40.998 9.41508C39.4963 10.0772 37.9049 10.5136 36.2755 10.7101C37.9919 9.68418 39.2774 8.07 39.893 6.16758C38.2805 7.12289 36.5156 7.79352 34.6755 8.15008C33.4385 6.83264 31.8016 5.95988 30.0183 5.66698C28.235 5.37408 26.4049 5.67739 24.8114 6.52993C23.2179 7.38247 21.9501 8.73665 21.2042 10.3827C20.4583 12.0288 20.276 13.8749 20.6855 15.6351C17.4224 15.4715 14.2301 14.6238 11.3157 13.1469C8.40122 11.6701 5.82976 9.59719 3.76805 7.06258C2.7214 8.87029 2.40198 11.0086 2.87466 13.0432C3.34734 15.0779 4.57668 16.8564 6.31305 18.0176C5.0119 17.9734 3.73935 17.624 2.59805 16.9976V17.1101C2.60029 19.0038 3.25631 20.8386 4.45523 22.3045C5.65415 23.7703 7.32242 24.7773 9.17805 25.1551C8.4737 25.3491 7.74612 25.4459 7.01555 25.4426C6.50051 25.4441 5.9865 25.3964 5.48055 25.3001C6.00501 26.9302 7.02623 28.3555 8.40116 29.3763C9.7761 30.3971 11.4359 30.9622 13.148 30.9926C10.2394 33.2771 6.64655 34.5161 2.94805 34.5101C2.29635 34.5128 1.6451 34.4753 0.998047 34.3976C4.75183 36.7907 9.11129 38.0615 13.563 38.0601Z" fill="#101820"/>
</g>
<defs>
<clipPath id="clip0_117_315">
<rect width="40" height="40" fill="white" transform="translate(0.998047 0.560059)"/>
</clipPath>
</defs>
</svg>
